<svg width="442" height="138" viewBox="0 0 442 138" fill="none" xmlns="http://www.w3.org/2000/svg">
<path d="M144.28 28.44C145.507 28.44 146.693 28.5467 147.84 28.76C148.987 28.9467 150.12 29.3067 151.24 29.84L150.36 32.88C149.213 32.3467 148.173 31.9733 147.24 31.76C146.333 31.52 145.4 31.4 144.44 31.4C142.92 31.4 141.72 31.7333 140.84 32.4C139.96 33.0667 139.52 34 139.52 35.2C139.52 36.2133 139.84 37.0267 140.48 37.64C141.147 38.2533 142.227 38.7867 143.72 39.24L146.24 40.04C148.533 40.76 150.147 41.7467 151.08 43C152.04 44.2267 152.52 45.6133 152.52 47.16C152.52 48.2533 152.293 49.2533 151.84 50.16C151.413 51.04 150.8 51.8 150 52.44C149.227 53.0533 148.307 53.5333 147.24 53.88C146.173 54.2 145 54.36 143.72 54.36C142.44 54.36 141.133 54.24 139.8 54C138.493 53.7867 137.187 53.3733 135.88 52.76L136.76 49.76C137.907 50.32 139.027 50.7333 140.12 51C141.213 51.2667 142.36 51.4 143.56 51.4C145 51.4 146.227 51.0667 147.24 50.4C148.253 49.7333 148.76 48.7467 148.76 47.44C148.76 46.96 148.68 46.52 148.52 46.12C148.387 45.6933 148.133 45.2933 147.76 44.92C147.413 44.5467 146.933 44.2 146.32 43.88C145.707 43.56 144.933 43.2533 144 42.96L141.48 42.16C139.64 41.5733 138.227 40.7733 137.24 39.76C136.253 38.7467 135.76 37.3733 135.76 35.64C135.76 33.4267 136.48 31.68 137.92 30.4C139.387 29.0933 141.507 28.44 144.28 28.44ZM163.995 54V28.8H167.675V39.4H179.635V28.8H183.315V54H179.635V42.52H167.675V54H163.995ZM196.259 28.8H211.459V31.84H199.939V39.4H210.419V42.4H199.939V50.96H211.579V54H196.259V28.8ZM222.898 28.8H231.098C232.405 28.8 233.552 28.9867 234.538 29.36C235.552 29.7333 236.392 30.2533 237.058 30.92C237.725 31.5867 238.232 32.3867 238.578 33.32C238.925 34.2267 239.098 35.2267 239.098 36.32C239.098 37.28 238.952 38.1467 238.658 38.92C238.365 39.6933 237.978 40.3733 237.498 40.96C237.018 41.52 236.458 42.0133 235.818 42.44C235.205 42.84 234.578 43.1733 233.938 43.44L240.578 54H236.458L230.498 44.12H226.378V54H222.898V28.8ZM226.378 41.12H229.418C230.245 41.12 231.005 41.04 231.698 40.88C232.418 40.6933 233.032 40.4267 233.538 40.08C234.072 39.7067 234.485 39.2267 234.778 38.64C235.098 38.0533 235.258 37.3467 235.258 36.52C235.258 34.8933 234.805 33.6933 233.898 32.92C233.018 32.1467 231.725 31.76 230.018 31.76H226.378V41.12ZM251.863 28.8L256.143 43.64C256.249 43.96 256.356 44.3733 256.463 44.88C256.596 45.36 256.729 45.88 256.863 46.44C256.996 46.9733 257.116 47.52 257.223 48.08C257.329 48.6133 257.409 49.12 257.463 49.6H257.543C257.623 49.12 257.716 48.6133 257.823 48.08C257.956 47.52 258.089 46.9733 258.223 46.44C258.356 45.88 258.476 45.36 258.583 44.88C258.716 44.4 258.836 43.9867 258.943 43.64L263.343 28.8H266.623L271.183 43.64C271.289 43.9867 271.396 44.4 271.503 44.88C271.636 45.36 271.756 45.8667 271.863 46.4C271.996 46.9333 272.116 47.48 272.223 48.04C272.356 48.6 272.463 49.12 272.543 49.6H272.623C272.703 49.0933 272.796 48.56 272.903 48C273.036 47.44 273.169 46.8933 273.303 46.36C273.436 45.8 273.556 45.2933 273.663 44.84C273.796 44.36 273.903 43.96 273.983 43.64L278.103 28.8H281.823L274.423 54H270.703L266.863 40.6C266.676 39.9333 266.489 39.3067 266.303 38.72C266.143 38.1333 265.983 37.5733 265.823 37.04C265.689 36.5067 265.543 35.9733 265.383 35.44C265.249 34.88 265.103 34.2933 264.943 33.68H264.863C264.596 34.88 264.303 36.08 263.983 37.28C263.663 38.48 263.356 39.5867 263.063 40.6L259.343 54H255.663L248.103 28.8H251.863ZM302.167 28.44C303.874 28.44 305.447 28.72 306.887 29.28C308.327 29.8133 309.567 30.6267 310.607 31.72C311.674 32.7867 312.501 34.1333 313.087 35.76C313.674 37.36 313.967 39.24 313.967 41.4C313.967 43.5067 313.661 45.3733 313.047 47C312.434 48.6 311.594 49.9467 310.527 51.04C309.461 52.1333 308.194 52.96 306.727 53.52C305.287 54.08 303.714 54.36 302.007 54.36C300.301 54.36 298.727 54.0933 297.287 53.56C295.847 53 294.594 52.1867 293.527 51.12C292.487 50.0267 291.674 48.68 291.087 47.08C290.501 45.4533 290.207 43.56 290.207 41.4C290.207 39.2933 290.514 37.44 291.127 35.84C291.741 34.2133 292.581 32.8533 293.647 31.76C294.714 30.6667 295.967 29.84 297.407 29.28C298.874 28.72 300.461 28.44 302.167 28.44ZM294.207 41.4C294.207 43.1067 294.407 44.5867 294.807 45.84C295.234 47.0933 295.807 48.1333 296.527 48.96C297.247 49.7867 298.087 50.4 299.047 50.8C300.034 51.2 301.074 51.4 302.167 51.4C303.261 51.4 304.274 51.2 305.207 50.8C306.167 50.4 306.994 49.7867 307.687 48.96C308.407 48.1333 308.967 47.0933 309.367 45.84C309.767 44.5867 309.967 43.1067 309.967 41.4C309.967 39.64 309.754 38.1333 309.327 36.88C308.927 35.6267 308.367 34.6 307.647 33.8C306.927 32.9733 306.074 32.3733 305.087 32C304.127 31.6 303.101 31.4 302.007 31.4C300.914 31.4 299.887 31.6 298.927 32C297.967 32.4 297.141 33.0133 296.447 33.84C295.754 34.6667 295.207 35.7067 294.807 36.96C294.407 38.2133 294.207 39.6933 294.207 41.4ZM336.189 28.44C337.896 28.44 339.469 28.72 340.909 29.28C342.349 29.8133 343.589 30.6267 344.629 31.72C345.696 32.7867 346.522 34.1333 347.109 35.76C347.696 37.36 347.989 39.24 347.989 41.4C347.989 43.5067 347.682 45.3733 347.069 47C346.456 48.6 345.616 49.9467 344.549 51.04C343.482 52.1333 342.216 52.96 340.749 53.52C339.309 54.08 337.736 54.36 336.029 54.36C334.322 54.36 332.749 54.0933 331.309 53.56C329.869 53 328.616 52.1867 327.549 51.12C326.509 50.0267 325.696 48.68 325.109 47.08C324.522 45.4533 324.229 43.56 324.229 41.4C324.229 39.2933 324.536 37.44 325.149 35.84C325.762 34.2133 326.602 32.8533 327.669 31.76C328.736 30.6667 329.989 29.84 331.429 29.28C332.896 28.72 334.482 28.44 336.189 28.44ZM328.229 41.4C328.229 43.1067 328.429 44.5867 328.829 45.84C329.256 47.0933 329.829 48.1333 330.549 48.96C331.269 49.7867 332.109 50.4 333.069 50.8C334.056 51.2 335.096 51.4 336.189 51.4C337.282 51.4 338.296 51.2 339.229 50.8C340.189 50.4 341.016 49.7867 341.709 48.96C342.429 48.1333 342.989 47.0933 343.389 45.84C343.789 44.5867 343.989 43.1067 343.989 41.4C343.989 39.64 343.776 38.1333 343.349 36.88C342.949 35.6267 342.389 34.6 341.669 33.8C340.949 32.9733 340.096 32.3733 339.109 32C338.149 31.6 337.122 31.4 336.029 31.4C334.936 31.4 333.909 31.6 332.949 32C331.989 32.4 331.162 33.0133 330.469 33.84C329.776 34.6667 329.229 35.7067 328.829 36.96C328.429 38.2133 328.229 39.6933 328.229 41.4ZM367.811 28.8C369.598 28.8 371.251 29.0533 372.771 29.56C374.291 30.0667 375.598 30.8267 376.691 31.84C377.811 32.8267 378.678 34.08 379.291 35.6C379.931 37.0933 380.251 38.84 380.251 40.84C380.251 43.2667 379.878 45.32 379.131 47C378.384 48.68 377.371 50.04 376.091 51.08C374.838 52.12 373.371 52.8667 371.691 53.32C370.038 53.7733 368.278 54 366.411 54H359.611V28.8H367.811ZM363.291 50.96H366.051C367.331 50.96 368.584 50.8267 369.811 50.56C371.038 50.2667 372.118 49.7467 373.051 49C374.011 48.2267 374.784 47.1867 375.371 45.88C375.958 44.5733 376.251 42.8933 376.251 40.84C376.251 39.4 376.038 38.12 375.611 37C375.184 35.88 374.571 34.9467 373.771 34.2C372.971 33.4267 371.998 32.84 370.851 32.44C369.731 32.04 368.478 31.84 367.091 31.84H363.291V50.96Z" fill="#DDC139"/>
<path d="M137.2 82.8H145.12C146.427 82.8 147.613 82.9733 148.68 83.32C149.747 83.64 150.667 84.1333 151.44 84.8C152.213 85.44 152.813 86.24 153.24 87.2C153.667 88.1333 153.88 89.2133 153.88 90.44C153.88 91.7733 153.653 92.9333 153.2 93.92C152.747 94.88 152.107 95.68 151.28 96.32C150.453 96.96 149.48 97.44 148.36 97.76C147.24 98.08 146 98.24 144.64 98.24H140.88V108H137.2V82.8ZM140.88 95.24H143.16C144.147 95.24 145.067 95.1733 145.92 95.04C146.773 94.9067 147.493 94.6667 148.08 94.32C148.693 93.9733 149.173 93.4933 149.52 92.88C149.867 92.24 150.04 91.44 150.04 90.48C150.04 89.6 149.867 88.8667 149.52 88.28C149.2 87.6667 148.773 87.1733 148.24 86.8C147.707 86.4267 147.093 86.16 146.4 86C145.707 85.84 145 85.76 144.28 85.76H140.88V95.24ZM164.738 82.8H168.418V104.88H179.178V108H164.738V82.8ZM188.478 82.8H192.158V97.88C192.158 100.573 192.652 102.493 193.638 103.64C194.625 104.787 196.212 105.36 198.398 105.36C200.558 105.36 202.132 104.72 203.118 103.44C204.132 102.16 204.638 100.467 204.638 98.36V82.8H208.318V98.24C208.318 101.68 207.438 104.227 205.678 105.88C203.918 107.533 201.492 108.36 198.398 108.36C195.278 108.36 192.838 107.547 191.078 105.92C189.345 104.267 188.478 101.64 188.478 98.04V82.8ZM222.464 82.8H227.264L232.544 98.88C232.811 99.6533 233.064 100.413 233.304 101.16C233.544 101.88 233.771 102.613 233.984 103.36H234.064C234.278 102.613 234.491 101.893 234.704 101.2C234.944 100.507 235.211 99.7333 235.504 98.88L240.664 82.8H245.464L247.664 108H243.984L242.944 94.64C242.838 93.3333 242.758 92.04 242.704 90.76C242.651 89.4533 242.598 88.1333 242.544 86.8H242.464C242.091 88.1067 241.704 89.4133 241.304 90.72C240.931 92.0267 240.531 93.3333 240.104 94.64L235.664 108H232.304L227.864 94.6C227.411 93.24 226.998 91.9467 226.624 90.72C226.251 89.4667 225.878 88.16 225.504 86.8H225.424C225.371 88.1067 225.291 89.4133 225.184 90.72C225.104 92.0267 225.011 93.3333 224.904 94.64L223.944 108H220.344L222.464 82.8ZM267.566 82.8C270.073 82.8 272.02 83.3467 273.406 84.44C274.82 85.5067 275.526 87.08 275.526 89.16C275.526 90.7067 275.086 91.92 274.206 92.8C273.353 93.6533 272.273 94.2533 270.966 94.6C271.713 94.7333 272.406 94.9733 273.046 95.32C273.686 95.64 274.246 96.0667 274.726 96.6C275.206 97.1333 275.58 97.7733 275.846 98.52C276.14 99.24 276.286 100.053 276.286 100.96C276.286 102 276.06 102.96 275.606 103.84C275.153 104.693 274.526 105.427 273.726 106.04C272.926 106.653 271.98 107.133 270.886 107.48C269.793 107.827 268.593 108 267.286 108H260.006V82.8H267.566ZM263.686 93.32H266.686C267.353 93.32 267.993 93.2667 268.606 93.16C269.22 93.0533 269.753 92.8533 270.206 92.56C270.686 92.2667 271.06 91.88 271.326 91.4C271.62 90.8933 271.766 90.24 271.766 89.44C271.766 88.16 271.326 87.2267 270.446 86.64C269.593 86.0533 268.446 85.76 267.006 85.76H263.686V93.32ZM263.686 105.04H266.886C267.633 105.04 268.34 104.973 269.006 104.84C269.673 104.68 270.26 104.427 270.766 104.08C271.273 103.733 271.673 103.28 271.966 102.72C272.286 102.133 272.446 101.427 272.446 100.6C272.446 99.7733 272.26 99.0933 271.886 98.56C271.54 98 271.073 97.5467 270.486 97.2C269.9 96.8533 269.233 96.6133 268.486 96.48C267.74 96.32 266.993 96.24 266.246 96.24H263.686V105.04ZM291.771 82.8V108H288.091V82.8H291.771ZM304.73 82.8H307.93L319.41 98.76C319.836 99.3467 320.25 99.9467 320.65 100.56C321.05 101.173 321.41 101.773 321.73 102.36H321.81C321.756 101.427 321.716 100.493 321.69 99.56C321.663 98.6267 321.65 97.6933 321.65 96.76V82.8H325.25V108H322.05L310.69 92.24C310.29 91.68 309.876 91.0533 309.45 90.36C309.023 89.64 308.623 88.9333 308.25 88.24H308.17C308.223 89.36 308.263 90.48 308.29 91.6C308.316 92.72 308.33 93.84 308.33 94.96V108H304.73V82.8ZM349.205 82.44C350.671 82.44 351.991 82.5467 353.165 82.76C354.365 82.9733 355.471 83.3467 356.485 83.88L355.605 86.76C354.618 86.3067 353.645 85.9733 352.685 85.76C351.751 85.5467 350.738 85.44 349.645 85.44C348.471 85.44 347.351 85.6133 346.285 85.96C345.218 86.3067 344.271 86.88 343.445 87.68C342.645 88.4533 342.005 89.48 341.525 90.76C341.045 92.0133 340.805 93.5733 340.805 95.44C340.805 98.6667 341.538 101.12 343.005 102.8C344.471 104.48 346.538 105.32 349.205 105.32C350.218 105.32 351.085 105.267 351.805 105.16C352.551 105.053 353.271 104.867 353.965 104.6V97.6H349.205V94.72H357.405V106.88C356.338 107.307 355.151 107.667 353.845 107.96C352.538 108.227 350.991 108.36 349.205 108.36C347.471 108.36 345.845 108.08 344.325 107.52C342.831 106.96 341.525 106.133 340.405 105.04C339.285 103.947 338.405 102.6 337.765 101C337.125 99.4 336.805 97.5467 336.805 95.44C336.805 93.3333 337.111 91.4667 337.725 89.84C338.365 88.2133 339.231 86.8533 340.325 85.76C341.418 84.6667 342.725 83.84 344.245 83.28C345.765 82.72 347.418 82.44 349.205 82.44Z" fill="#282B3F"/>
<g clip-path="url(#clip0_24_626)">
<path fill-rule="evenodd" clip-rule="evenodd" d="M115.673 40.849L113.901 42.6L88.4407 67.7752L84.4656 63.8462L88.0119 60.3443L86.0326 58.3879L66.9191 39.4763C66.9916 39.2872 67.0642 39.0981 67.1302 38.9057C67.1398 38.8847 67.1476 38.8629 67.1533 38.8405C67.2225 38.6546 67.2819 38.472 67.3413 38.2862C67.3516 38.2573 67.3604 38.2279 67.3677 38.1981C67.4205 38.0221 67.4733 37.8493 67.5227 37.6732C67.5227 37.6341 67.5458 37.5949 67.5557 37.5525C67.6019 37.3797 67.6481 37.2037 67.6877 37.0276C67.6877 36.9852 67.7108 36.9428 67.7174 36.9004C67.7669 36.6983 67.8097 36.4961 67.846 36.2972C67.8823 36.0983 67.9153 35.9222 67.945 35.7331C67.9747 35.544 68.011 35.3092 68.0374 35.081C68.0638 34.8527 68.0868 34.6604 68.1066 34.4517C68.1082 34.4431 68.1082 34.4342 68.1066 34.4256C68.1264 34.2169 68.1429 34.0082 68.1528 33.7996C68.1627 33.5909 68.1528 33.3692 68.1726 33.1474C68.1693 33.1379 68.1693 33.1276 68.1726 33.1181C68.1726 32.9257 68.1726 32.7399 68.1726 32.5508C68.1726 32.4855 68.1726 32.4268 68.1726 32.3616L68.1528 31.8628C68.1264 31.4421 68.0901 31.0248 68.0374 30.6107C68.0374 30.5618 68.0374 30.5194 68.0209 30.4737C67.9978 30.3107 67.9747 30.1477 67.945 29.9781C67.945 29.952 67.945 29.9292 67.945 29.8999C67.9164 29.7173 67.8834 29.5347 67.846 29.3521C67.6559 28.4627 67.399 27.5886 67.0774 26.7371C67.0411 26.649 67.0114 26.5577 66.9718 26.4664C66.7904 25.9871 66.5826 25.5111 66.3549 25.0481C66.1933 24.722 66.0251 24.3959 65.8337 24.0699C65.7711 23.9623 65.7117 23.8547 65.6457 23.7438C65.5797 23.633 65.517 23.5286 65.4511 23.4178C65.1938 23.0069 64.9178 22.6037 64.6231 22.2081C64.5373 22.0939 64.4548 21.9798 64.3657 21.882C64.2767 21.7842 64.2074 21.6798 64.1282 21.582C63.9204 21.3277 63.7093 21.0799 63.4685 20.8386C63.416 20.7735 63.3598 20.7115 63.3002 20.6528C63.2309 20.5745 63.1584 20.4995 63.0825 20.4245C63.0066 20.3495 62.9077 20.2419 62.812 20.1506C62.2787 19.6216 61.7124 19.1261 61.1164 18.667C60.9515 18.5399 60.7865 18.416 60.6117 18.2921C60.2653 18.0443 59.9156 17.8128 59.5593 17.591C59.3812 17.4802 59.2031 17.3758 59.0249 17.265C58.573 17.0106 58.1111 16.7726 57.646 16.5574C57.3656 16.4302 57.0819 16.3031 56.7982 16.1922C56.4155 16.039 56.0329 15.8988 55.6403 15.7716C55.5479 15.739 55.449 15.7064 55.35 15.6803L54.7628 15.5075C53.7816 15.2425 52.7796 15.0593 51.7675 14.9597C51.1636 14.8973 50.5569 14.8658 49.9498 14.8652C48.1255 14.8581 46.3105 15.123 44.5661 15.651C44.1273 15.7814 43.6919 15.9346 43.263 16.0977L54.941 27.6435L52.9319 32.9029L49.93 35.8668L44.6057 37.8525L32.9278 26.3099C32.7562 26.7338 32.5979 27.1642 32.4725 27.5946C31.9363 29.3241 31.6661 31.1234 31.6709 32.9322C31.6709 33.5322 31.7039 34.1354 31.7633 34.7321C31.897 36.0339 32.1735 37.3174 32.588 38.5601C32.7166 38.9448 32.8552 39.3296 33.0102 39.7013C33.2038 40.1752 33.4182 40.6382 33.6535 41.0903C33.7822 41.3414 33.9174 41.5859 34.0593 41.8272C34.0856 41.8794 34.1153 41.925 34.1417 41.9707C34.2209 42.1076 34.3001 42.2446 34.3858 42.375C34.6267 42.763 34.884 43.1412 35.1578 43.513L35.4877 43.9434C35.9598 44.5422 36.4688 45.1117 37.0117 45.6487L37.5165 46.1247C37.6319 46.2323 37.7507 46.3367 37.8694 46.4508C37.9882 46.5649 38.0344 46.5942 38.1135 46.6627C38.1927 46.7312 38.2356 46.7638 38.2983 46.8127C38.45 46.9399 38.6051 47.0638 38.7634 47.1811C38.9218 47.2985 38.9877 47.354 39.0933 47.4387C39.4892 47.7289 39.8982 47.9996 40.3139 48.2572L40.6437 48.4495C41.0836 48.7017 41.5234 48.9343 41.9633 49.1473C42.6643 49.4813 43.386 49.7709 44.124 50.0146L44.4704 50.1255C44.7244 50.207 44.9784 50.2755 45.2324 50.3407L45.6052 50.4352C45.8592 50.4939 46.1066 50.5494 46.3574 50.5983L46.9116 50.6961H46.9907L47.2447 50.7352L47.6307 50.7874C48.053 50.8396 48.4719 50.8754 48.8975 50.8983H49.1515H49.5935C49.7849 50.8983 49.9762 50.8983 50.1675 50.8983H50.1972C50.4149 50.8983 50.6327 50.8983 50.857 50.8787H50.9955L51.3254 50.8559H51.5036C51.9423 50.8233 52.3777 50.7678 52.8231 50.6994L53.0276 50.6668C53.3575 50.6113 53.6874 50.5461 54.0173 50.4744L54.1426 50.445C54.3208 50.4059 54.4989 50.3603 54.6737 50.3113L54.7991 50.2787C54.9772 50.2331 55.1554 50.1842 55.3302 50.1287L55.4127 50.1027C55.604 50.0407 55.7921 49.982 55.9801 49.9168L56.0428 49.894C56.2374 49.8255 56.4287 49.757 56.6201 49.682L77.7129 70.5304L59.335 88.6921L54.1327 83.6055L26.373 56.1674C25.9749 55.7718 25.5889 55.3697 25.2151 54.961C24.8357 54.5534 24.4761 54.1393 24.1264 53.7154C24.1159 53.6972 24.1026 53.6807 24.0868 53.6665C23.757 53.2622 23.4271 52.8481 23.1137 52.4242C22.6881 51.8536 22.2824 51.27 21.8964 50.6831C21.5105 50.0961 21.1443 49.4897 20.8012 48.8799C20.5769 48.4724 20.3559 48.0648 20.1414 47.6507C19.9633 47.292 19.7885 46.9399 19.6235 46.5779C19.5509 46.4247 19.4817 46.2714 19.4157 46.1149C19.3233 45.9095 19.2342 45.7008 19.1485 45.4921C19.0627 45.2835 18.9407 44.99 18.8417 44.7357C18.7427 44.4814 18.6471 44.227 18.5547 43.9727C18.3699 43.4608 18.1984 42.9489 18.0401 42.4304C17.9807 42.2283 17.918 42.0294 17.8619 41.8272C17.7696 41.5012 17.6805 41.1751 17.5947 40.849C17.5353 40.6012 17.476 40.3502 17.4199 40.1023C17.3638 39.8545 17.3308 39.7078 17.2912 39.5057C17.2516 39.3035 17.222 39.1568 17.189 38.9807C17.156 38.8046 17.1197 38.6122 17.0867 38.4264C17.0504 38.1916 17.0108 37.9569 16.9745 37.7254C16.9383 37.4939 16.8987 37.1906 16.8657 36.9265C16.8327 36.6624 16.8096 36.4178 16.7832 36.1603V36.0722C16.7304 35.557 16.6941 35.0419 16.671 34.5234C16.671 34.2658 16.648 34.0017 16.6414 33.7409V33.7083C16.6414 33.4442 16.6414 33.18 16.6414 32.9192C16.6414 32.6323 16.6414 32.3453 16.6414 32.0551V31.8204C16.6414 31.6997 16.6414 31.5791 16.6414 31.4584C16.6414 31.3378 16.6414 31.2661 16.6578 31.165C16.6578 30.9476 16.671 30.7302 16.6974 30.5129C16.6974 30.4216 16.6974 30.3303 16.7172 30.239C16.737 30.1477 16.7172 30.0401 16.7436 29.9455C16.7464 29.8679 16.7541 29.7906 16.7667 29.714C16.7667 29.5803 16.7898 29.4434 16.8063 29.3162C16.8228 29.1891 16.8294 29.1108 16.8426 29.0097C16.8558 28.9086 16.8591 28.8826 16.869 28.8206C16.8921 28.6054 16.9218 28.3935 16.9547 28.1685C16.9547 28.1391 16.9547 28.1065 16.9547 28.0707C16.9547 27.9794 16.9778 27.8881 16.9943 27.8C16.9909 27.7806 16.9909 27.7608 16.9943 27.7413C17.0108 27.6305 17.0306 27.5196 17.0471 27.4153L17.0966 27.1349C17.1296 26.9686 17.156 26.8088 17.1923 26.636L17.2121 26.5186C17.2121 26.4925 17.2121 26.4697 17.2286 26.4436C17.2549 26.2969 17.2879 26.1502 17.3176 26.0067C17.3374 25.9154 17.3605 25.8208 17.3836 25.7295C17.4067 25.6382 17.4034 25.6252 17.4166 25.5698C17.5485 24.9894 17.6992 24.4112 17.8685 23.8351C17.8725 23.8141 17.878 23.7934 17.885 23.7732C17.9246 23.6427 17.9576 23.5156 18.0005 23.3852C18.0269 23.3134 18.0434 23.2384 18.0698 23.1667C18.106 23.0395 18.1456 22.9156 18.1885 22.7885C18.2314 22.6613 18.2677 22.5504 18.3139 22.4298C18.3139 22.4004 18.3304 22.3711 18.3403 22.3385C18.3831 22.2113 18.4293 22.0874 18.4755 21.9635C18.5811 21.6668 18.6899 21.3701 18.8054 21.0799C18.8747 20.8973 18.944 20.718 19.0231 20.5354C19.0528 20.4636 19.0792 20.3952 19.1089 20.3267C19.2079 20.0854 19.3134 19.8441 19.4223 19.6028C19.6367 19.1203 19.8643 18.6246 20.1051 18.1714C23.3297 11.8309 28.5351 6.6858 34.9499 3.49863C35.171 3.39103 35.392 3.28343 35.6097 3.17257C35.8274 3.06171 36.1309 2.93129 36.3948 2.8139L37.1305 2.48784L37.3449 2.40306C37.5263 2.32807 37.7078 2.25634 37.8925 2.19112C38.1894 2.077 38.483 1.9694 38.7832 1.86506L39.1626 1.73464C39.1923 1.72193 39.2233 1.7121 39.2549 1.70529C39.377 1.65964 39.4958 1.62052 39.6178 1.58465C39.7399 1.54878 39.8718 1.50313 40.0038 1.46727C40.0764 1.44118 40.1489 1.42162 40.2248 1.39879L40.6701 1.30424H40.7295C41.3101 1.13468 41.8973 0.978174 42.4878 0.854271L42.6462 0.821664L42.9266 0.762973C43.075 0.727106 43.2202 0.697761 43.3719 0.668415H43.4478C43.4854 0.657066 43.5241 0.64942 43.5632 0.645591L44.0713 0.554294L44.3517 0.505384C44.4605 0.485821 44.5727 0.466257 44.6815 0.453214H44.7376L45.0147 0.414087C45.0487 0.410709 45.083 0.410709 45.117 0.414087C45.3314 0.381481 45.5458 0.352135 45.7768 0.32605L45.9714 0.303226C46.0704 0.303226 46.1726 0.277141 46.2782 0.267359C46.3837 0.257577 46.5487 0.238014 46.6773 0.228232L46.9149 0.202147L47.2118 0.179322L47.4922 0.159759L48.1519 0.117371C48.1618 0.119012 48.1718 0.119012 48.1816 0.117371H48.3301H48.4488H48.815H49.0558H49.2933C49.5077 0.117371 49.7123 0.117371 49.93 0.117371C50.1939 0.117371 50.4611 0.117371 50.725 0.117371C50.9889 0.117371 51.2759 0.133674 51.5497 0.146716C52.071 0.172801 52.5955 0.208668 53.1167 0.257577C53.1475 0.255801 53.1783 0.255801 53.2091 0.257577C53.4697 0.283662 53.7237 0.309747 53.9843 0.342353L54.7892 0.449954C55.0267 0.48256 55.2642 0.518427 55.5018 0.560815C55.7393 0.603203 55.8778 0.626027 56.0626 0.661894C56.2473 0.697761 56.4188 0.723846 56.5937 0.762973C56.7685 0.802101 56.9961 0.844489 57.1941 0.890137C57.4481 0.942307 57.6955 1.00426 57.9528 1.06621C58.2827 1.14447 58.6126 1.2325 58.9424 1.32706L59.556 1.50313C60.0773 1.65964 60.5985 1.8292 61.1131 2.00853C61.3704 2.10309 61.6277 2.19439 61.885 2.2922C62.0137 2.34111 62.1456 2.39002 62.271 2.44219L62.6504 2.59544C63.0165 2.74543 63.3794 2.89868 63.739 3.06171C63.7475 3.06445 63.7568 3.06445 63.7654 3.06171C64.1249 3.228 64.4779 3.38777 64.8309 3.57037C65.2531 3.77579 65.6688 3.99425 66.0778 4.22249C66.698 4.54855 67.3017 4.917 67.8988 5.30176C68.4959 5.68651 69.0897 6.0843 69.6637 6.50818C70.0925 6.81468 70.5126 7.13531 70.9239 7.47007C70.939 7.48222 70.9533 7.49528 70.9667 7.50919C71.3989 7.85156 71.8178 8.21023 72.2302 8.58194C72.6425 8.95365 73.0516 9.33188 73.4508 9.72642L101.211 37.1645L104.008 39.9295L96.0281 52.4177L109.032 39.5676L109.936 38.6742L111.707 36.92L115.673 40.849Z" fill="#DDC139"/>
<path fill-rule="evenodd" clip-rule="evenodd" d="M99.2577 105.501C99.2577 105.788 99.2577 106.074 99.2577 106.365C99.2577 106.443 99.2577 106.521 99.2577 106.603C99.2577 106.684 99.2577 106.844 99.2379 106.961C99.2181 107.079 99.2379 107.157 99.2379 107.255L99.1983 107.907C99.1983 107.998 99.1983 108.09 99.1752 108.181C99.1521 108.272 99.1587 108.38 99.1521 108.474C99.1455 108.569 99.1521 108.628 99.129 108.706C99.129 108.839 99.1026 108.976 99.0861 109.104C99.0696 109.231 99.063 109.309 99.0498 109.413C99.0366 109.518 99.0333 109.541 99.0234 109.599C99.0003 109.814 98.9706 110.026 98.9377 110.251C98.9377 110.281 98.9377 110.317 98.9377 110.349L98.8981 110.623V110.678C98.8816 110.789 98.8618 110.9 98.842 111.005C98.8222 111.109 98.8123 111.187 98.7925 111.285C98.7628 111.448 98.7331 111.611 98.7001 111.781L98.677 111.898C98.677 111.924 98.677 111.95 98.677 111.973C98.6474 112.12 98.6177 112.266 98.5847 112.41C98.5649 112.501 98.5418 112.596 98.522 112.687C98.5022 112.778 98.4989 112.791 98.489 112.847C98.3538 113.43 98.2053 114.008 98.0371 114.581C98.032 114.603 98.0254 114.623 98.0173 114.643C97.9777 114.774 97.9447 114.901 97.9018 115.031C97.8787 115.106 97.8622 115.178 97.8358 115.25C97.7996 115.377 97.7567 115.501 97.7138 115.628C97.6709 115.755 97.6346 115.869 97.5917 115.987C97.5853 116.018 97.5754 116.049 97.562 116.078C97.5191 116.205 97.4763 116.329 97.4268 116.456C97.3212 116.75 97.2157 117.046 97.0969 117.34C97.0276 117.519 96.955 117.699 96.8792 117.881C96.8528 117.95 96.8231 118.025 96.7934 118.09C96.69 118.331 96.5801 118.572 96.4635 118.814C96.2491 119.296 96.0215 119.776 95.784 120.245C92.5577 126.584 87.3528 131.729 80.9392 134.918C80.7181 135.029 80.5004 135.133 80.2794 135.244C80.0584 135.355 79.7549 135.485 79.491 135.599C79.2271 135.713 79.0027 135.808 78.7586 135.909L78.5475 135.994C78.3628 136.069 78.1846 136.141 77.9966 136.209C77.6997 136.32 77.4028 136.428 77.1026 136.535L76.7232 136.666C76.6937 136.679 76.6627 136.689 76.6309 136.695C76.5121 136.741 76.3901 136.78 76.268 136.819L75.882 136.933C75.8128 136.962 75.7369 136.979 75.6643 137.001L75.2717 137.119L75.2091 137.135C74.6285 137.301 74.0446 137.461 73.4541 137.582L73.2924 137.614L73.012 137.673C72.8669 137.709 72.7184 137.738 72.57 137.768H72.4941C72.4554 137.779 72.4156 137.787 72.3754 137.791C72.2071 137.826 72.0455 137.852 71.8706 137.882L71.5902 137.931L71.2604 137.986C71.2417 137.988 71.2229 137.988 71.2043 137.986L70.9272 138.025C70.8932 138.029 70.8589 138.029 70.8249 138.025L70.1816 138.113L69.9903 138.136C69.8847 138.152 69.7825 138.159 69.6769 138.172C69.5713 138.185 69.4097 138.201 69.2777 138.214L69.0402 138.237L68.7433 138.26C68.651 138.26 68.5553 138.276 68.4662 138.28C68.2452 138.299 68.0242 138.309 67.8065 138.322H67.7768C67.7273 138.325 67.6777 138.325 67.6283 138.322H67.5096H67.1434H66.9059H66.6684H66.0317C65.7634 138.322 65.4962 138.322 65.2301 138.322C64.9563 138.322 64.6825 138.322 64.4053 138.293C63.8841 138.267 63.3596 138.231 62.8384 138.182C62.8077 138.185 62.7767 138.185 62.746 138.182C62.4887 138.156 62.2314 138.13 61.9708 138.097L61.1659 137.989C60.9284 137.957 60.6908 137.921 60.4566 137.879C60.2224 137.836 60.0806 137.817 59.8958 137.781C59.7111 137.745 59.5395 137.715 59.3647 137.676C59.1899 137.637 58.9623 137.595 58.7643 137.549C58.5103 137.497 58.2596 137.438 58.0056 137.373C57.6757 137.295 57.3458 137.207 56.9994 137.112L56.3892 136.936C55.8657 136.782 55.3456 136.613 54.8288 136.431L54.0569 136.15L53.6709 135.997L53.2915 135.844C52.9287 135.694 52.5625 135.541 52.2062 135.381H52.1765C51.8236 135.215 51.464 135.055 51.111 134.872C50.692 134.667 50.2764 134.448 49.8673 134.22C49.2472 133.883 48.6391 133.525 48.0431 133.144C47.446 132.763 46.8555 132.358 46.2782 131.934C45.8515 131.628 45.4326 131.307 45.0213 130.973C45.0045 130.961 44.989 130.948 44.9751 130.933C44.5463 130.59 44.1251 130.232 43.7117 129.861C43.2982 129.489 42.8925 129.107 42.4944 128.716L14.7346 101.278L11.9339 98.5098L19.9303 85.9336L6.92957 98.7837L5.9696 99.7358L4.19482 101.487L0.236206 97.574L2.01099 95.8198L27.4781 70.6446L31.4532 74.5573L27.9102 78.0625L29.8895 80.0189L49.0063 98.9304C48.9305 99.1196 48.8612 99.3087 48.7919 99.4978C48.7822 99.5188 48.7745 99.5406 48.7688 99.563C48.7028 99.7489 48.6402 99.9347 48.5841 100.121L48.5544 100.205C48.5016 100.381 48.4488 100.554 48.4026 100.73C48.4026 100.769 48.3796 100.809 48.3697 100.851C48.3202 101.024 48.274 101.2 48.2377 101.376C48.224 101.418 48.213 101.46 48.2047 101.503C48.1563 101.705 48.1135 101.907 48.0761 102.11C48.0398 102.295 48.0068 102.481 47.9771 102.67C47.9474 102.859 47.9144 103.094 47.888 103.306C47.8616 103.518 47.8385 103.727 47.8187 103.935V103.962C47.799 104.17 47.7792 104.379 47.7726 104.588C47.766 104.796 47.7528 105.018 47.7495 105.24C47.7511 105.249 47.7511 105.259 47.7495 105.269C47.7495 105.461 47.7495 105.647 47.7495 105.836C47.7495 105.902 47.7495 105.96 47.7495 106.026C47.7495 106.192 47.766 106.352 47.7726 106.528C47.7957 106.945 47.8352 107.362 47.888 107.777C47.888 107.825 47.888 107.868 47.888 107.913C47.9111 108.076 47.9408 108.24 47.9672 108.409C47.9656 108.435 47.9656 108.461 47.9672 108.487C47.9958 108.67 48.0288 108.853 48.0662 109.035C48.2477 109.938 48.4981 110.827 48.815 111.693C48.848 111.781 48.881 111.872 48.9173 111.963C49.0987 112.442 49.3065 112.919 49.5341 113.382C49.6991 113.708 49.864 114.034 50.0554 114.36L50.2434 114.686C50.3061 114.797 50.3721 114.904 50.438 115.012C50.6986 115.423 50.9724 115.827 51.266 116.222C51.3518 116.336 51.4376 116.446 51.5267 116.548L51.7642 116.848C51.972 117.102 52.1831 117.346 52.4074 117.588C52.4602 117.653 52.5196 117.712 52.5757 117.777C52.6318 117.842 52.7175 117.927 52.7934 118.002L53.0639 118.276C53.5962 118.804 54.1614 119.298 54.7562 119.756C54.9245 119.883 55.0861 120.01 55.2642 120.134C55.5941 120.379 55.957 120.61 56.3133 120.832C56.4914 120.943 56.6729 121.047 56.851 121.158C57.3029 121.412 57.7648 121.65 58.2299 121.866C58.5136 121.993 58.7973 122.12 59.081 122.231C59.4637 122.384 59.8463 122.524 60.2356 122.651C60.3313 122.684 60.4302 122.717 60.5292 122.743L61.1164 122.916C62.0968 123.18 63.0975 123.364 64.1084 123.467C64.7121 123.525 65.3224 123.558 65.9261 123.558C67.7584 123.563 69.581 123.296 71.3329 122.766C71.7684 122.632 72.2038 122.482 72.6327 122.316L60.9548 110.77L62.967 105.51L65.9558 102.556L71.2801 100.567L82.9548 112.11C83.1263 111.686 83.2846 111.256 83.41 110.825C83.9478 109.094 84.2192 107.292 84.2149 105.481C84.2149 104.884 84.1819 104.281 84.1225 103.684C83.9872 102.383 83.7107 101.1 83.2978 99.8565C83.1692 99.4717 83.0273 99.0902 82.8756 98.7152C82.681 98.2425 82.4632 97.7827 82.2158 97.3262C82.0872 97.0784 81.9519 96.8306 81.8101 96.5893C81.7852 96.54 81.7577 96.4921 81.7276 96.4459C81.6517 96.3089 81.5692 96.1752 81.4868 96.0415C81.2427 95.6535 80.9853 95.2753 80.7115 94.9036C80.606 94.7601 80.4938 94.6199 80.3817 94.4732C79.9097 93.8732 79.4007 93.3026 78.8576 92.7646C78.6926 92.6016 78.5244 92.4418 78.3529 92.2853C78.2374 92.1777 78.1219 92.0734 78.0032 91.9592L77.7591 91.7473L77.5743 91.5973C77.4193 91.4701 77.2642 91.3462 77.1092 91.2289L76.7793 90.9713C76.3801 90.6811 75.9744 90.4104 75.5554 90.1529L75.2256 89.9637C74.7857 89.7138 74.3459 89.4801 73.906 89.2627C73.2045 88.9284 72.4816 88.6398 71.742 88.3986L71.4121 88.2845C71.1548 88.2063 70.9008 88.1345 70.6468 88.0693L70.274 87.9748C70.0233 87.9161 69.7726 87.8639 69.5219 87.8117C69.3371 87.7748 69.1524 87.7422 68.9677 87.7139H68.8885C68.806 87.7139 68.7202 87.6846 68.6378 87.6748C68.5553 87.665 68.3805 87.6357 68.2485 87.6194C67.8296 87.5672 67.4073 87.5313 66.985 87.5085H66.731C66.5859 87.5085 66.4374 87.5085 66.2857 87.5085C66.0944 87.5085 65.9063 87.5085 65.7117 87.5085H65.6787C65.461 87.5085 65.2433 87.5085 65.0189 87.5281H64.8837C64.7748 87.5281 64.666 87.5281 64.5538 87.5476H64.379C63.9402 87.5802 63.5048 87.6389 63.0594 87.7041L62.8549 87.7367C62.525 87.7922 62.1951 87.8574 61.8652 87.9291L61.7399 87.9585C61.5584 87.9976 61.3803 88.0432 61.2055 88.0921L61.0801 88.1247C60.9053 88.1704 60.7271 88.2226 60.549 88.278L60.4665 88.3041C60.2752 88.3628 60.0905 88.4215 59.9024 88.4867L59.8364 88.5128C59.6451 88.578 59.4505 88.6465 59.2624 88.7214L38.1696 67.873L56.5475 49.7114L61.7102 54.8143L89.4667 82.2524C89.8691 82.6469 90.2518 83.048 90.6279 83.4621C91.0039 83.8762 91.3668 84.2837 91.7132 84.7044C91.7248 84.7219 91.738 84.7383 91.7528 84.7533C92.0827 85.1576 92.4125 85.5749 92.7259 85.9988C93.1515 86.5662 93.5572 87.1498 93.9465 87.74C94.3358 88.3302 94.6986 88.9334 95.0384 89.5431C95.266 89.9474 95.4838 90.3583 95.6982 90.7724C95.8796 91.1278 96.0512 91.4832 96.2194 91.8419L96.4272 92.3049C96.5196 92.5135 96.6087 92.719 96.6944 92.9276C96.7802 93.1363 96.9023 93.433 97.0012 93.6841C97.1002 93.9352 97.1959 94.1928 97.2882 94.4471C97.473 94.959 97.6412 95.4742 97.7996 95.9894C97.8589 96.1915 97.9216 96.3937 97.9777 96.5926C98.0734 96.9186 98.1624 97.2447 98.2449 97.5871C98.3076 97.8381 98.367 98.0859 98.4197 98.3337C98.4725 98.5816 98.5088 98.7315 98.5484 98.9304C98.588 99.1293 98.621 99.2793 98.654 99.4554C98.6869 99.6315 98.7232 99.8239 98.7529 100.01C98.7826 100.196 98.8321 100.479 98.8651 100.711C98.8981 100.942 98.941 101.245 98.9772 101.51C99.0135 101.774 99.0333 102.018 99.0564 102.276C99.0598 102.305 99.0598 102.335 99.0564 102.364C99.1092 102.879 99.1455 103.397 99.1719 103.913C99.1719 104.174 99.195 104.438 99.2016 104.695C99.2016 104.695 99.2016 104.715 99.2016 104.728C99.2543 104.992 99.2577 105.24 99.2577 105.501Z" fill="#282B3F"/>
</g>
<defs>
<clipPath id="clip0_24_626">
<rect width="116" height="138" fill="white"/>
</clipPath>
</defs>
</svg>
